<svg width="36" height="36" viewBox="0 0 36 36" fill="none" xmlns="http://www.w3.org/2000/svg">
<path d="M18 36C27.9411 36 36 27.9411 36 18C36 8.05888 27.9411 0 18 0C8.05888 0 0 8.05888 0 18C0 27.9411 8.05888 36 18 36Z" fill="white"/>
<path fill-rule="evenodd" clip-rule="evenodd" d="M23.9999 13.3333H21.9999V12C21.9999 9.79086 20.2091 8 17.9999 8C15.7908 8 13.9999 9.79086 13.9999 12V13.3333H11.9999C11.6317 13.3333 11.3333 13.6318 11.3333 14V24C11.332 24.354 11.4721 24.6939 11.7224 24.9442C11.9727 25.1945 12.3126 25.3346 12.6666 25.3333H23.3333C23.6873 25.3346 24.0271 25.1945 24.2774 24.9442C24.5278 24.6939 24.6678 24.354 24.6666 24V14C24.6666 13.6318 24.3681 13.3333 23.9999 13.3333ZM15.3333 12C15.3333 10.5272 16.5272 9.33333 17.9999 9.33333C19.4727 9.33333 20.6666 10.5272 20.6666 12V13.3333H15.3333V12ZM23.3334 23.3333C23.3334 23.7 23.7001 24 23.3334 24H13.3334C12.9652 24 12.6667 23.7015 12.6667 23.3333V22.6667H23.3334V23.3333ZM23.3334 21.3333H12.6667V14.6667H14.0001V15.3333C14.0001 15.7015 14.2986 16 14.6667 16C15.0349 16 15.3334 15.7015 15.3334 15.3333V14.6667H20.6667V15.3333C20.6667 15.7015 20.9652 16 21.3334 16C21.7016 16 22.0001 15.7015 22.0001 15.3333V14.6667H23.3334V21.3333Z" fill="black"/>
</svg>
