<svg width="60" height="60" viewBox="0 0 60 60" fill="none" xmlns="http://www.w3.org/2000/svg">
<ellipse cx="33.5" cy="31.5" rx="22.5" ry="18.5" fill="white"/>
<path d="M29.9999 0C13.4314 0 0 13.4314 0 29.9999C0 46.5684 13.4314 59.9999 29.9999 59.9999C46.5684 59.9999 59.9999 46.5684 59.9999 29.9999C59.9823 13.4388 46.5612 0.0177037 29.9999 0ZM46.515 20.8007L25.0864 42.2293C24.2495 43.0659 22.8931 43.0659 22.0564 42.2293L13.4849 33.6578C12.6336 32.8357 12.61 31.4791 13.4322 30.6279C14.2543 29.7766 15.6109 29.753 16.4622 30.5751C16.48 30.5924 16.4976 30.6099 16.5149 30.6279L23.5714 37.6843L43.485 17.7707C44.3363 16.9486 45.6928 16.9722 46.515 17.8233C47.317 18.6538 47.317 19.9702 46.515 20.8007Z" fill="#00AFAF"/>
</svg>
