<svg width="35" height="35" viewBox="0 0 35 35" fill="none" xmlns="http://www.w3.org/2000/svg">
<g clip-path="url(#clip0)">
<path d="M27.8789 24.3744C27.7432 24.3744 27.6076 24.3248 27.5017 24.2244L21.1552 18.2705C20.9335 18.0632 20.9224 17.7135 21.1309 17.4918C21.3394 17.2679 21.6868 17.258 21.9107 17.4676L28.2572 23.4214C28.4789 23.6288 28.4899 23.9784 28.2815 24.2001C28.1723 24.3159 28.0267 24.3744 27.8789 24.3744Z" fill="white"/>
<path d="M6.69364 24.3744C6.54694 24.3744 6.40025 24.3159 6.29105 24.2001C6.08259 23.9784 6.09362 23.6288 6.31532 23.4214L12.664 17.4675C12.8868 17.2602 13.2365 17.269 13.4439 17.4918C13.6523 17.7135 13.6413 18.0631 13.4196 18.2705L7.07085 24.2244C6.96497 24.3247 6.8293 24.3744 6.69364 24.3744Z" fill="white"/>
<path d="M31.6326 29.9096H2.94201C1.42211 29.9096 0.18457 28.6732 0.18457 27.1522V8.34973C0.18457 6.82872 1.42211 5.59229 2.94201 5.59229H31.6326C33.1525 5.59229 34.3901 6.82872 34.3901 8.34973V27.1522C34.3901 28.6732 33.1525 29.9096 31.6326 29.9096ZM2.94201 6.69526C2.02985 6.69526 1.28755 7.43756 1.28755 8.34973V27.1522C1.28755 28.0643 2.02985 28.8066 2.94201 28.8066H31.6326C32.5448 28.8066 33.2871 28.0643 33.2871 27.1522V8.34973C33.2871 7.43756 32.5448 6.69526 31.6326 6.69526H2.94201Z" fill="white"/>
<path d="M17.2877 20.5227C16.5542 20.5227 15.8207 20.279 15.2626 19.7926L1.10039 7.43812C0.870972 7.23848 0.846706 6.88994 1.04634 6.65942C1.24819 6.43 1.59563 6.40904 1.82505 6.60648L15.9873 18.9598C16.6921 19.5742 17.8833 19.5742 18.587 18.9598L32.7316 6.62633C32.9599 6.42669 33.3073 6.44875 33.5103 6.67927C33.7099 6.9098 33.6867 7.25723 33.4573 7.45797L19.3127 19.7915C18.7535 20.279 18.0212 20.5227 17.2877 20.5227Z" fill="white"/>
</g>
<defs>
<clipPath id="clip0">
<rect width="34.2055" height="34.2055" fill="white" transform="translate(0.18457 0.648926)"/>
</clipPath>
</defs>
</svg>
