<svg width="37" height="37" viewBox="0 0 37 37" fill="none" xmlns="http://www.w3.org/2000/svg">
<g clip-path="url(#clip0)">
<path d="M7.94714 24.5937C11.4816 28.8187 15.7362 32.1452 20.5924 34.499C22.4413 35.3752 24.9139 36.4147 27.6686 36.5929C27.8394 36.6004 28.0028 36.6078 28.1736 36.6078C30.0225 36.6078 31.5075 35.9692 32.7178 34.6549C32.7253 34.6475 32.7401 34.6327 32.7475 34.6178C33.1782 34.098 33.6683 33.6302 34.1806 33.1328C34.5296 32.7986 34.886 32.4496 35.2276 32.0932C36.8092 30.4448 36.8092 28.3509 35.2127 26.7545L30.7501 22.2919C29.9928 21.5048 29.0869 21.089 28.1364 21.089C27.186 21.089 26.2727 21.5048 25.493 22.2844L22.8348 24.9427C22.5898 24.8016 22.3373 24.6754 22.0997 24.5566C21.8027 24.4081 21.528 24.267 21.2829 24.1111C18.8623 22.574 16.6644 20.5692 14.5631 17.9926C13.5012 16.6487 12.7884 15.52 12.2909 14.3691C12.9889 13.738 13.6423 13.0771 14.2735 12.4311C14.4962 12.2009 14.7264 11.9707 14.9566 11.7406C15.7585 10.9386 16.1892 10.0105 16.1892 9.06746C16.1892 8.12445 15.7659 7.19629 14.9566 6.39437L12.7439 4.18164C12.484 3.92175 12.2389 3.66929 11.9865 3.40941C11.4964 2.90449 10.9841 2.38472 10.4792 1.91693C9.71435 1.16698 8.81589 0.773438 7.86546 0.773438C6.92245 0.773438 6.01657 1.16698 5.22206 1.92435L2.44501 4.7014C1.43518 5.71124 0.86343 6.93641 0.744626 8.35464C0.603545 10.1293 0.930257 12.0153 1.77674 14.2949C3.07616 17.8219 5.03643 21.0964 7.94714 24.5937ZM2.55639 8.51057C2.64549 7.52301 3.02418 6.6988 3.73701 5.98598L6.49921 3.22378C6.92987 2.80796 7.40509 2.59263 7.86546 2.59263C8.3184 2.59263 8.77877 2.80796 9.20201 3.23863C9.6995 3.69899 10.1673 4.18164 10.6722 4.69398C10.9247 4.95386 11.1846 5.21375 11.4444 5.48106L13.6572 7.69379C14.1175 8.15415 14.3551 8.62195 14.3551 9.08231C14.3551 9.54268 14.1175 10.0105 13.6572 10.4708C13.427 10.701 13.1968 10.9386 12.9666 11.1688C12.2761 11.8668 11.6301 12.5276 10.9172 13.1588C10.9024 13.1736 10.895 13.1811 10.8801 13.1959C10.2638 13.8122 10.3603 14.3988 10.5089 14.8443C10.5163 14.8666 10.5237 14.8814 10.5311 14.9037C11.1029 16.2774 11.8974 17.5842 13.1374 19.1436C15.365 21.8909 17.7114 24.022 20.2954 25.6629C20.6146 25.8708 20.9562 26.0342 21.2755 26.1976C21.5725 26.3461 21.8472 26.4871 22.0923 26.6431C22.122 26.6579 22.1442 26.6728 22.174 26.6876C22.419 26.8139 22.6566 26.8733 22.8942 26.8733C23.4882 26.8733 23.8743 26.4946 24.0006 26.3683L26.7776 23.5913C27.2083 23.1606 27.6761 22.9304 28.1364 22.9304C28.7008 22.9304 29.1611 23.2794 29.4507 23.5913L33.9282 28.0613C34.8192 28.9523 34.8118 29.9176 33.9059 30.8606C33.594 31.1948 33.2673 31.514 32.9183 31.8482C32.3985 32.3531 31.8565 32.8729 31.3664 33.4595C30.5125 34.3802 29.4953 34.8109 28.181 34.8109C28.0548 34.8109 27.9211 34.8034 27.7949 34.796C25.3594 34.6401 23.0947 33.6897 21.3943 32.8803C16.7758 30.6453 12.7216 27.4747 9.35794 23.4502C6.58831 20.1163 4.72457 17.0125 3.49198 13.686C2.72717 11.644 2.43759 10.003 2.55639 8.51057Z" fill="white"/>
</g>
<defs>
<clipPath id="clip0">
<rect width="35.8343" height="35.8343" fill="white" transform="translate(0.644531 0.773438)"/>
</clipPath>
</defs>
</svg>
