<svg xmlns="http://www.w3.org/2000/svg" width="624.387" height="624.387"><path d="M472.802 93.553c-4.541-2.544-10.236-1.751-13.937 1.938s-4.481 9.384-1.938 13.948c21.512 38.505 32.868 82.263 32.868 126.546 0 143.364-116.625 260.001-260.013 260.001-44.26 0-88.006-11.38-126.534-32.891a11.688 11.688 0 00-13.936 1.938 11.682 11.682 0 00-1.938 13.947c50.096 89.687 144.929 145.396 247.489 145.407 156.227 0 283.321-127.105 283.333-283.333-.022-102.596-55.731-197.429-145.394-247.501zM334.853 601.032c-80.523 0-155.865-37.443-204.747-99.829 31.735 11.917 65.572 18.126 99.701 18.126 156.227 0 283.321-127.106 283.321-283.345 0-34.129-6.198-67.966-18.115-99.701 62.374 48.858 99.817 124.2 99.829 204.759 0 143.354-116.636 259.99-259.989 259.99zM136.456 167.271a11.676 11.676 0 0016.948-12.301l-8.007-46.699 33.93-33.077a11.675 11.675 0 002.953-11.964 11.692 11.692 0 00-9.431-7.948l-46.886-6.816-20.975-42.487c-3.921-7.973-17.005-7.973-20.927 0L63.087 48.465 16.19 55.281a11.695 11.695 0 00-9.431 7.948 11.68 11.68 0 002.953 11.964l33.93 33.077-7.996 46.699a11.676 11.676 0 004.634 11.415 11.69 11.69 0 0012.302.887l41.937-22.048 41.937 22.048zm-73.801-31.665l5.042-29.448a11.653 11.653 0 00-3.362-10.317L42.941 74.982l29.565-4.295a11.668 11.668 0 008.789-6.385l13.224-26.774 13.224 26.774a11.65 11.65 0 008.789 6.385l29.565 4.295-21.395 20.858a11.692 11.692 0 00-3.35 10.329l5.042 29.448-26.437-13.901a11.655 11.655 0 00-5.439-1.342c-1.868 0-3.724.443-5.439 1.342l-26.424 13.89z" fill="#fff"/></svg>