<svg xmlns="http://www.w3.org/2000/svg" width="64pt" height="64pt" viewBox="0 0 64 64"><path d="M7 6C5.348 6 4 7.348 4 9v46c0 1.652 1.348 3 3 3h50c1.652 0 3-1.348 3-3V9c0-1.652-1.348-3-3-3zm0 2h50c.55 0 1 .45 1 1v46c0 .55-.45 1-1 1H7c-.55 0-1-.45-1-1V9c0-.55.45-1 1-1zm23 6c-8.27 0-15 6.73-15 15s6.73 15 15 15c2.77 0 5.355-.77 7.582-2.082.031-.02.219.125.297.203l4.586 4.586a3.818 3.818 0 002.707 1.121c.98 0 1.96-.375 2.707-1.121A3.803 3.803 0 0049 44a3.803 3.803 0 00-1.121-2.707l-4.586-4.586c-.094-.094-.266-.309-.246-.344A14.832 14.832 0 0045 29c0-8.27-6.73-15-15-15zm0 2c7.168 0 13 5.832 13 13s-5.832 13-13 13-13-5.832-13-13 5.832-13 13-13zm.086 2c-6.02 0-10.914 4.895-10.914 10.914 0 6.02 4.894 10.914 10.914 10.914S41 34.934 41 28.914 36.105 18 30.086 18zm0 2C35 20 39 24 39 28.914s-4 8.914-8.914 8.914-8.914-4-8.914-8.914 4-8.914 8.914-8.914zm0 1.828a1 1 0 100 2 5.074 5.074 0 014.68 3.094 1.006 1.006 0 001.312.527c.508-.219.746-.804.531-1.312a7.086 7.086 0 00-6.523-4.309zm11.793 16.293l4.586 4.586c.347.348.535.805.535 1.293a1.827 1.827 0 01-3.121 1.293l-4.563-4.559a15.16 15.16 0 002.563-2.613zM9 50c-.55 0-1 .45-1 1v2c0 .55.45 1 1 1s1-.45 1-1v-2c0-.55-.45-1-1-1zm5 0c-.55 0-1 .45-1 1v2c0 .55.45 1 1 1s1-.45 1-1v-2c0-.55-.45-1-1-1zm5 0c-.55 0-1 .45-1 1v2c0 .55.45 1 1 1s1-.45 1-1v-2c0-.55-.45-1-1-1zm5 0c-.55 0-1 .45-1 1v2c0 .55.45 1 1 1s1-.45 1-1v-2c0-.55-.45-1-1-1zm5 0c-.55 0-1 .45-1 1v2c0 .55.45 1 1 1s1-.45 1-1v-2c0-.55-.45-1-1-1zm5 0c-.55 0-1 .45-1 1v2c0 .55.45 1 1 1s1-.45 1-1v-2c0-.55-.45-1-1-1zm5 0c-.55 0-1 .45-1 1v2c0 .55.45 1 1 1s1-.45 1-1v-2c0-.55-.45-1-1-1zm5 0c-.55 0-1 .45-1 1v2c0 .55.45 1 1 1s1-.45 1-1v-2c0-.55-.45-1-1-1zm5 0c-.55 0-1 .45-1 1v2c0 .55.45 1 1 1s1-.45 1-1v-2c0-.55-.45-1-1-1zm5 0c-.55 0-1 .45-1 1v2c0 .55.45 1 1 1s1-.45 1-1v-2c0-.55-.45-1-1-1zm0 0"/></svg>